<?xml version="1.0" standalone="no"?>
<!DOCTYPE svg PUBLIC "-//W3C//DTD SVG 20010904//EN"
 "http://www.w3.org/TR/2001/REC-SVG-20010904/DTD/svg10.dtd">
<svg version="1.0" xmlns="http://www.w3.org/2000/svg"
 width="192.000000pt" height="192.000000pt" viewBox="0 0 192.000000 192.000000"
 preserveAspectRatio="xMidYMid meet">
<metadata>
Created by potrace 1.11, written by Peter Selinger 2001-2013
</metadata>
<g transform="translate(0.000000,192.000000) scale(0.100000,-0.100000)"
fill="#000000" stroke="none">
<path d="M700 1910 c0 -3 -15 -14 -32 -23 -18 -9 -55 -30 -83 -46 -27 -17 -68
-40 -90 -53 -22 -12 -48 -27 -57 -33 -9 -5 -50 -29 -92 -52 -78 -45 -80 -48
-168 -203 -100 -175 -151 -261 -159 -265 -5 -4 -9 -119 -9 -268 l0 -262 50
-83 c28 -46 50 -85 50 -87 0 -1 34 -60 75 -130 41 -69 75 -130 75 -133 0 -4
26 -22 58 -40 31 -18 64 -37 72 -42 44 -28 223 -130 227 -130 2 0 23 -13 46
-29 l42 -28 260 1 c238 1 262 3 288 20 16 11 114 69 219 130 l191 111 128 222
128 222 0 252 0 252 -125 214 c-68 118 -124 218 -124 221 0 4 -28 23 -63 43
-34 19 -132 75 -217 124 -85 49 -157 92 -160 96 -7 8 -530 8 -530 -1z"/>
</g>
</svg>
